<?xml version="1.0" encoding="UTF-8"?>
<!DOCTYPE svg PUBLIC "-//W3C//DTD SVG 1.1//EN" "http://www.w3.org/Graphics/SVG/1.1/DTD/svg11.dtd">
<!-- Creator: CorelDRAW 2020 (64 Bit) -->
<svg xmlns="http://www.w3.org/2000/svg" xml:space="preserve" width="10858.6mm" height="215mm" version="1.1" style="shape-rendering:geometricPrecision; text-rendering:geometricPrecision; image-rendering:optimizeQuality; fill-rule:evenodd; clip-rule:evenodd"
viewBox="0 0 1085858.59 21500"
 xmlns:xlink="http://www.w3.org/1999/xlink"
 xmlns:xodm="http://www.corel.com/coreldraw/odm/2003"
 sodipodi:docname="landscape-hills-clipart-publicdomainvectors.org.svg"
 inkscape:version="1.2 (dc2aedaf03, 2022-05-15)"
 xmlns:inkscape="http://www.inkscape.org/namespaces/inkscape"
 xmlns:sodipodi="http://sodipodi.sourceforge.net/DTD/sodipodi-0.dtd"
 xmlns:svg="http://www.w3.org/2000/svg">
 <defs>
  <style type="text/css">
   <![CDATA[
    .fil7 {fill:none;fill-rule:nonzero}
    .fil4 {fill:#1C4347}
    .fil3 {fill:#2E6469}
    .fil2 {fill:#65A6AB}
    .fil1 {fill:#83C0C4}
    .fil5 {fill:#BBE3E6}
    .fil6 {fill:#D9F0F2}
    .fil0 {fill:#99D0D4;fill-rule:nonzero}
   ]]>
  </style>
    <clipPath id="id0" style="clip-rule:nonzero">
     <path d="M520984.85 4001.65l50673.4 0 0 15552.51 -50673.4 0 0 -15552.51z"/>
    </clipPath>
 </defs>
 <g id="Camada_x0020_1">
  <metadata id="CorelCorpID_0Corel-Layer"/>
  <sodipodi:namedview id="namedview2668" pagecolor="#ffffff" bordercolor="#000000" borderopacity="0.25" inkscape:showpageshadow="2" inkscape:pageopacity="0.0" inkscape:pagecheckerboard="0" inkscape:deskcolor="#d1d1d1" showgrid="false" inkscape:zoom="0.95113636" inkscape:cx="441.05137" inkscape:cy="440.52569" inkscape:window-width="1920" inkscape:window-height="1017" inkscape:window-x="-8" inkscape:window-y="-8" inkscape:window-maximized="1" inkscape:current-layer="g2674">
   <inkscape:page x="0" y="0" id="page2672" width="880" height="880"/>
  </sodipodi:namedview>
  <g id="_2124946581776">
   <polygon id="path2676" class="fil0" points="520984.85,19554.16 571658.25,19554.16 571658.25,4034.67 520984.85,4034.67 "/>
   <g>
   </g>
   <g style="clip-path:url(#id0)">
    <g id="_2124946587056">
     <path id="path2688" class="fil1" d="M520974.47 14751.02l1057.16 0c429.57,0 798.79,-39.79 1133.85,-122.32 319.77,-78.71 694.52,-118.42 1119.96,-118.42l242.93 0.01c485.25,0 902.44,-51.39 1253.1,-154.37 346.56,-101.87 764.93,-153.19 1248.78,-153.19l1832.23 -0.01c478.56,0 893.31,-50.17 1237.66,-149.87 336.91,-97.44 730.76,-147.42 1193.44,-151.23 358.86,-3.04 680.95,-34.91 963.42,-95.16 726.78,-155.24 1690.36,-128.99 2316.48,63.13 45.07,13.83 90.21,27.69 135.28,41.49 352.88,108.33 782.3,162.92 1281.28,162.92l267.61 0c408.77,0 759.95,35.96 1087.02,111.18 309.03,71.14 667.5,106.96 1071.74,106.96l412.31 0c169.21,51.91 338.59,103.89 507.97,155.9l963.55 0c498.98,0 928.47,54.58 1281.43,162.91 6.75,2.07 13.58,4.15 20.41,6.24 352.88,108.33 782.22,162.91 1281.19,162.91l1331.4 -0.01c424.74,0 789.51,-38.9 1122.65,-119.64 317.32,-76.87 688.08,-115.56 1108.28,-115.56l826.3 0c498.98,0 928.47,-54.62 1281.35,-162.91 71.47,-21.98 143.27,-43.97 214.74,-65.96 352.88,-108.33 782.37,-162.9 1281.34,-162.9l1702.63 0.01c425.35,0 790.9,-39 1124.34,-119.97 317.71,-77.18 689.09,-116.03 1109.98,-116.03l420.89 0c353.03,0 673.26,-27.54 953.12,-81.53 749.2,-144.59 1707.77,-104.55 2303.87,96.21 28.8,9.75 57.74,19.49 86.69,29.22 355.86,119.83 810.55,181.5 1339.08,181.5l568.32 0c374.9,0 696.77,30.01 1008.17,94.02 290.76,59.8 622.96,89.83 993.34,89.83l1035.8 0c383.35,0 712.57,31.48 1028.3,98.26 295.59,62.56 634.32,94 1013.08,94l305.35 0c359.86,0 668.58,27.59 972.23,86.83 282.47,55.11 602.7,82.85 958.34,82.85l349.96 0c465.57,0 865.98,-47.2 1212.09,-142.75 337.45,-93.2 740.45,-140.16 1203.35,-140.16l288.22 0c145.27,-77.17 290.61,-154.37 435.8,-231.54l1209 0 0 5420.43 -50696.8 0 0 -4843.29z"/>
     <path id="path2692" class="fil2" d="M571671.29 13539.6l0 6054.71 -50696.8 0 0 -5293.49 550.19 0c511.73,0 965.64,66.74 1272.13,183.05 286.07,108.59 658.83,170.56 1111.43,184.89 427.66,13.57 797.25,74.7 1080.96,179.35l221.58 81.7c323.93,119.5 759.8,182.25 1266.31,182.25l909.42 0c433.49,0 806.32,-45.08 1123.34,-135.78 302.89,-86.65 681.71,-131.82 1111.37,-131.82l676.77 -0.01c461.74,0 859.15,-51.49 1180.99,-153.1 312.18,-98.53 713.11,-150.06 1171.94,-150.06l1691.36 0c451.29,0 839.95,-49.11 1160.18,-146.71 309.02,-94.11 702.15,-143.22 1150.37,-143.22l1059.77 0.01c532.61,0 990.82,-69.87 1312.51,-200.07l648.54 -262.44c321.7,-130.24 779.76,-200.07 1312.36,-200.07l38.93 0c465.66,0 866.2,52.41 1188.61,155.55 309.33,98.94 715.73,151.61 1177.92,151.61l997.8 0c506.51,0 942.44,62.68 1266.37,182.25l20.81 7.66c324,119.52 759.71,182.2 1266.37,182.2l2611.83 -0.01c506.27,0 942.29,62.73 1266.31,182.25l686.62 253.32c323.85,119.49 759.86,182.17 1266.31,182.17l1508.75 0c506.42,0 942.37,62.78 1266.31,182.25l17.43 6.41c323.85,119.49 759.86,182.22 1266.31,182.22l2123.8 -0.01c506.42,0 942.28,-62.68 1266.3,-182.22l431.49 -159.16c323.78,-119.47 759.8,-182.22 1266.15,-182.22l759.41 0c415.14,0 772.15,-41.2 1084.64,-125.01 293.59,-78.89 654.98,-120.15 1062.07,-120.77 489.23,-0.77 909.27,-59.64 1231.44,-172.61 320.54,-112.45 745.22,-171.38 1236.05,-171.38l706.41 0.01c506.42,0 942.37,-62.73 1266.37,-182.22l648.47 -239.27c324,-119.46 759.64,-182.23 1266.07,-182.23l489.92 0z"/>
     <path id="path2696" class="fil3" d="M520974.47 16569.03l3558.58 0c461.68,0 857,-29.03 1268.44,-93.2 392.73,-61.26 792.42,-89.83 1248.26,-89.83l1820.11 0c459.82,0 853.93,-28.8 1264.21,-92.54 381.52,-59.29 769.46,-87.59 1212.55,-89.12l2841.16 -9.87c275.55,-0.97 512.4,17.37 753.57,58.25 228.34,38.65 460.98,56.67 727.93,56.67l624.36 0c389.48,0 722.78,20.57 1081.94,66.78 332.14,42.75 674.81,62.94 1056.76,63.08 242.02,0.03 449.23,14.75 666.82,47.37 206.39,30.9 417.28,45.37 656.44,45.37l1295.27 -0.01 6538.08 2.28c456.3,0.19 847.24,-28.07 1255.32,-90.7 386.65,-59.3 781.75,-87.09 1230.83,-87.09l1707.78 0c405,0 751.73,-22.22 1122.89,-72.06 345.65,-46.52 701.44,-68.37 1100.07,-68.37l1206.08 0 573.46 -115.86 428.51 0c538.52,0 1000.48,39.92 1460.09,126.09 449.77,84.34 913.42,123.9 1448.88,123.9l692.98 0c297.12,0 551.65,17.37 820.67,56.08 202.38,29.06 408.77,45.78 633.04,51.27l8815.95 0.01c29.86,-4.92 59.27,-10.21 87.9,-15.81 255.36,-49.73 514.65,-72.86 816.75,-72.86l681.1 0 0 3225.44 -50696.8 0 0 -3025.29z"/>
     <path id="path2700" class="fil4" d="M520974.47 17239.81l0 2354.5 50696.8 0 0 -2058.46 -550.04 0c-512.11,0 -965.64,25.92 -1272.29,71.16 -286.3,42.18 -658.99,66.34 -1111.43,71.92 -422.65,5.17 -788.59,28.51 -1070.98,68.29l-4642.06 0 -42726.78 0c-461.74,0 -859.15,-20 -1180.99,-59.5 -312.18,-38.37 -713.11,-58.4 -1172.03,-58.4l-1691.26 0.01c-451.3,0 -839.8,-19.08 -1160.19,-57.07 -309.11,-36.55 -701.96,-55.66 -1150.21,-55.66l-1059.92 0c-532.6,0 -990.73,-27.17 -1312.51,-77.81l-648.39 -102.03c-321.84,-50.62 -779.99,-77.78 -1312.36,-77.78l-38.93 0c-465.66,0 -866.28,20.39 -1188.61,60.46 -309.48,38.48 -715.88,58.93 -1178,58.93l-997.79 0c-506.57,0 -942.37,24.44 -1266.31,70.88l-20.96 3.02c-323.85,46.42 -759.71,70.83 -1266.22,70.83l39438.1 0c-506.42,0 -942.37,24.42 -1266.37,70.88l-686.47 98.48 -14.73 2.05 -11674.39 -0.01c-204.84,-7.96 -393.18,-20.99 -567.93,-39.16 -293.59,-30.71 -654.98,-46.78 -1062.07,-46.98 -489.23,-0.31 -909.2,-23.22 -1231.44,-67.14 -320.53,-43.74 -745.21,-66.64 -1236.11,-66.64l-706.21 0c-506.51,0 -942.37,-24.37 -1266.37,-70.86l-648.39 -93.04c-324,-46.49 -760.04,-70.88 -1266.37,-70.88l-489.77 0z"/>
     <polygon id="path2704" class="fil4" points="526245.01,15594.9 526770.08,16026.17 527294.85,16457.48 526794.51,16457.48 526928.39,16567.45 527611.71,17128.85 526882.11,17128.85 527071.67,17284.57 527898.25,17963.67 526245.01,17963.66 524591.75,17963.66 525418.42,17284.57 525608.07,17128.85 524878.44,17128.85 525561.69,16567.45 525695.52,16457.48 525195.14,16457.48 525720.07,16026.18 "/>
     <polygon id="path2708" class="fil4" points="528162.22,16022.86 528687.15,16454.16 529212.22,16885.43 528711.89,16885.43 528845.57,16995.39 529528.8,17556.78 528799.19,17556.78 528988.9,17712.47 529815.49,18391.58 528162.22,18391.58 526509.13,18391.58 527335.73,17712.47 527525.29,17556.78 526795.68,17556.78 527478.99,16995.39 527612.74,16885.43 527112.39,16885.43 527637.31,16454.16 "/>
     <polygon id="path2712" class="fil4" points="533053.49,16136.5 533505.87,16508.13 533958.17,16879.77 533526.98,16879.76 533642.15,16974.51 534231.04,17458.27 533602.38,17458.27 533765.69,17592.47 534477.95,18177.62 533053.49,18177.61 531628.87,18177.61 532341.22,17592.47 532504.46,17458.26 531875.72,17458.27 532464.61,16974.51 532579.84,16879.76 532148.59,16879.76 532601.04,16508.13 "/>
     <polygon id="path2716" class="fil4" points="535942.44,15831.42 536394.89,16202.99 536847.27,16574.69 536415.93,16574.7 536531.32,16669.4 537120.14,17153.16 536491.32,17153.15 536654.7,17287.35 537367.05,17872.5 535942.44,17872.5 534517.82,17872.5 535230.17,17287.35 535393.56,17153.15 534764.91,17153.15 535353.64,16669.39 535469.03,16574.69 535037.76,16574.7 535490.14,16202.99 "/>
     <polygon id="path2720" class="fil4" points="540373.59,16056.25 540825.97,16427.89 541278.42,16799.53 540847.09,16799.52 540962.33,16894.27 541551.29,17378.02 540922.47,17378.02 541085.85,17512.2 541798.05,18097.4 540373.59,18097.4 538949.13,18097.4 539661.33,17512.2 539824.56,17378.02 539195.91,17378.02 539784.88,16894.27 539900.05,16799.52 539468.85,16799.52 539921.3,16427.88 "/>
     <polygon id="path2724" class="fil4" points="550070.76,16280.09 550368.75,16524.94 550666.8,16769.73 550382.63,16769.73 550458.72,16832.18 550846.44,17150.84 550432.47,17150.84 550539.97,17239.26 551009.3,17624.74 550070.76,17624.74 549132.15,17624.74 549601.58,17239.26 549709.22,17150.84 549295.01,17150.84 549682.82,16832.18 549758.9,16769.73 549474.73,16769.73 549772.7,16524.94 "/>
     <polygon id="path2728" class="fil4" points="554309.15,15929.15 554677.07,16231.39 555044.98,16533.63 554694.26,16533.63 554787.93,16610.68 555266.96,17004.12 554755.61,17004.12 554888.44,17113.27 555467.66,17589.15 554309.15,17589.15 553150.57,17589.15 553729.86,17113.27 553862.77,17004.12 553351.44,17004.12 553830.3,16610.68 553924.04,16533.63 553573.47,16533.63 553941.23,16231.39 "/>
     <polygon id="path2732" class="fil4" points="555972.93,16368.94 556270.9,16613.82 556568.95,16858.64 556284.78,16858.64 556360.86,16921.04 556748.74,17239.72 556334.62,17239.71 556442.02,17328.11 556911.29,17713.62 555972.93,17713.62 555034.47,17713.62 555503.75,17328.11 555611.39,17239.71 555197.07,17239.71 555584.95,16921.03 555661.03,16858.63 555376.88,16858.64 555674.85,16613.82 "/>
     <polygon id="path2736" class="fil4" points="551876.78,15614.97 552329.17,15986.58 552781.55,16358.24 552350.19,16358.24 552465.51,16452.97 553054.49,16936.7 552425.67,16936.7 552589.05,17070.9 553301.4,17656.08 551876.78,17656.08 550452.17,17656.08 551164.52,17070.9 551327.9,16936.7 550699.08,16936.7 551287.81,16452.97 551403.29,16358.24 550972.17,16358.24 551424.4,15986.58 "/>
     <polygon id="path2740" class="fil4" points="568303.56,16029.49 568756.01,16401.17 569208.39,16772.81 568777.11,16772.8 568892.44,16867.5 569481.33,17351.3 568852.59,17351.3 569015.82,17485.46 569728.09,18070.61 568303.56,18070.61 566879.03,18070.61 567591.38,17485.46 567754.7,17351.3 567126,17351.3 567714.74,16867.5 567830.06,16772.8 567398.88,16772.8 567851.17,16401.16 "/>
     <polygon id="path2744" class="fil4" points="566433.98,16646.52 566732.04,16891.34 567029.85,17136.15 566745.86,17136.15 566821.79,17198.6 567209.75,17517.24 566795.52,17517.24 566903.17,17605.65 567372.43,17991.11 566433.98,17991.12 565495.44,17991.12 565964.62,17605.66 566072.27,17517.24 565658.14,17517.24 566046.02,17198.6 566121.95,17136.14 565837.96,17136.15 566136.01,16891.34 "/>
     <polygon id="path2748" class="fil3" points="522354.84,15905.77 522516.85,16038.82 522678.7,16171.84 522524.27,16171.84 522565.73,16205.72 522776.49,16378.87 522551.3,16378.87 522609.89,16426.92 522864.79,16636.41 522354.84,16636.42 521844.96,16636.42 522099.94,16426.93 522158.37,16378.88 521933.32,16378.87 522144.23,16205.72 522185.3,16171.84 522031.06,16171.84 522192.98,16038.82 "/>
     <polygon id="path2752" class="fil3" points="523383.31,15970.81 523545.32,16103.85 523707.24,16236.87 523552.83,16236.87 523594.05,16270.83 523804.81,16443.96 523579.94,16443.95 523638.38,16492 523893.37,16701.49 523383.31,16701.5 522873.27,16701.5 523128.26,16492.01 523186.7,16443.96 522961.79,16443.95 523172.55,16270.82 523213.77,16236.87 523059.38,16236.87 523221.3,16103.85 "/>
     <polygon id="path2756" class="fil3" points="523970.65,15910.65 524132.66,16043.68 524294.52,16176.72 524140.17,16176.72 524181.39,16210.6 524392.3,16383.8 524167.13,16383.8 524225.72,16431.85 524480.62,16641.29 523970.65,16641.29 523460.77,16641.29 523715.75,16431.85 523774.19,16383.8 523549.15,16383.8 523759.91,16210.6 523801.13,16176.72 523646.87,16176.72 523808.79,16043.68 "/>
     <polygon id="path2760" class="fil3" points="530339.31,15777 530478.59,15891.48 530617.86,16005.98 530485.12,16005.98 530520.59,16035.14 530702.17,16184.14 530508.39,16184.15 530558.6,16225.46 530778.17,16405.75 530339.31,16405.75 529900.46,16405.75 530119.88,16225.46 530170.24,16184.15 529976.46,16184.15 530157.88,16035.15 530193.51,16005.98 530060.62,16005.98 530200.04,15891.48 "/>
     <polygon id="path2764" class="fil3" points="531165.78,15623.94 531305.23,15738.42 531444.49,15852.92 531311.76,15852.92 531347.23,15882.09 531528.5,16031.09 531334.86,16031.09 531385.23,16072.39 531604.65,16252.69 531165.78,16252.7 530727.09,16252.7 530946.36,16072.4 530996.72,16031.09 530803.09,16031.09 530984.36,15882.09 531019.99,15852.92 530887.1,15852.92 531026.52,15738.43 "/>
     <polygon id="path2768" class="fil3" points="534265.21,15659.89 534404.65,15774.34 534543.92,15888.85 534411.18,15888.85 534446.65,15917.99 534627.93,16067.02 534434.27,16067.02 534484.64,16108.36 534703.91,16288.58 534265.21,16288.59 533826.52,16288.59 534045.79,16108.37 534096.15,16067.02 533902.51,16067.02 534083.79,15917.99 534119.42,15888.84 533986.5,15888.85 534125.77,15774.35 "/>
     <path id="path2772" class="fil5" d="M561311.83 12878.3c3791.91,0 6884.52,-949.15 6884.52,-2112.95 0,-1163.77 -3092.61,-2112.93 -6884.52,-2112.93 -3791.91,0 -6884.37,949.18 -6884.37,2112.93 0,1163.79 3092.46,2112.95 6884.37,2112.95z"/>
     <polygon id="path2776" class="fil3" points="543851.32,15994.23 543990.58,16108.7 544129.87,16223.16 543997.11,16223.16 544032.59,16252.38 544214.01,16401.33 544020.38,16401.33 544070.59,16442.69 544290.01,16622.93 543851.32,16622.93 543412.45,16622.93 543631.72,16442.69 543682.08,16401.33 543488.47,16401.33 543669.74,16252.38 543705.37,16223.16 543572.45,16223.16 543711.88,16108.71 "/>
     <polygon id="path2780" class="fil3" points="538241.06,15875.61 538380.33,15990.09 538519.6,16104.54 538386.86,16104.54 538422.34,16133.75 538603.76,16282.75 538410.12,16282.75 538460.33,16324.1 538679.76,16504.35 538241.06,16504.35 537802.2,16504.35 538021.62,16324.1 538071.98,16282.75 537878.2,16282.75 538059.62,16133.75 538095.25,16104.54 537962.36,16104.54 538101.78,15990.09 "/>
     <polygon id="path2784" class="fil3" points="537489.63,15933.98 537629.04,16048.46 537768.34,16162.96 537635.42,16162.96 537671.05,16192.11 537852.47,16341.13 537658.69,16341.13 537709.05,16382.49 537928.47,16562.73 537489.63,16562.73 537050.76,16562.73 537270.33,16382.49 537320.54,16341.13 537126.78,16341.13 537308.35,16192.11 537343.83,16162.96 537211.07,16162.96 537350.34,16048.46 "/>
     <polygon id="path2788" class="fil3" points="543263.82,16174.72 543368.25,16260.57 543472.89,16346.43 543373.14,16346.43 543399.87,16368.35 543535.92,16480.09 543390.58,16480.09 543428.36,16511.07 543592.89,16646.27 543263.82,16646.26 542934.76,16646.26 543099.29,16511.07 543137.07,16480.08 542991.79,16480.09 543127.69,16368.35 543154.33,16346.43 543054.76,16346.43 543159.18,16260.57 "/>
     <polygon id="path2792" class="fil3" points="547478.38,16090.08 547582.89,16175.94 547687.47,16261.77 547587.88,16261.77 547614.45,16283.73 547750.43,16395.42 547605.16,16395.42 547642.94,16426.44 547807.48,16561.63 547478.38,16561.62 547149.32,16561.62 547313.77,16426.43 547351.61,16395.41 547206.36,16395.42 547342.4,16283.73 547368.98,16261.77 547269.25,16261.77 547373.89,16175.94 "/>
     <polygon id="path2796" class="fil3" points="538635.82,16025.57 538740.3,16111.42 538844.73,16197.29 538745.16,16197.29 538771.8,16219.2 538907.84,16330.94 538762.57,16330.94 538800.35,16361.93 538965.04,16497.17 538635.82,16497.17 538306.6,16497.17 538471.29,16361.93 538508.83,16330.94 538363.73,16330.94 538499.77,16219.2 538526.5,16197.29 538426.9,16197.29 538531.24,16111.42 "/>
     <polygon id="path2800" class="fil3" points="548720.34,15949.18 548859.54,16063.63 548998.89,16178.1 548866.07,16178.1 548901.54,16207.27 549083.05,16356.32 548889.4,16356.32 548939.54,16397.63 549159.05,16577.92 548720.34,16577.92 548281.47,16577.92 548500.74,16397.63 548551.25,16356.32 548357.49,16356.32 548538.91,16207.28 548574.54,16178.11 548441.47,16178.1 548580.9,16063.63 "/>
     <polygon id="path2804" class="fil3" points="555859.84,15624.98 555999.28,15739.43 556138.55,15853.93 556005.81,15853.93 556041.2,15883.08 556222.71,16032.08 556029.05,16032.08 556079.2,16073.43 556298.71,16253.67 555859.84,16253.67 555421.15,16253.67 555640.57,16073.43 555690.78,16032.08 555497.15,16032.08 555678.57,15883.08 555714.05,15853.93 555581.29,15853.93 555720.56,15739.43 "/>
     <polygon id="path2808" class="fil3" points="560899.23,15867.2 561038.43,15981.66 561177.94,16096.09 561044.94,16096.09 561080.56,16125.3 561261.92,16274.31 561068.29,16274.31 561118.58,16315.66 561337.94,16495.9 560899.23,16495.9 560460.36,16495.9 560679.79,16315.66 560730.14,16274.31 560536.36,16274.31 560717.78,16125.3 560753.41,16096.09 560620.43,16096.09 560759.79,15981.66 "/>
     <polygon id="path2812" class="fil3" points="562881.34,16063.36 562985.77,16149.21 563090.34,16235.06 562990.75,16235.06 563017.39,16256.94 563153.44,16368.69 563008.12,16368.69 563045.9,16399.7 563210.44,16534.91 562881.34,16534.91 562552.21,16534.91 562716.66,16399.7 562754.44,16368.69 562609.32,16368.69 562745.37,16256.94 562771.85,16235.06 562672.28,16235.06 562776.86,16149.21 "/>
     <polygon id="path2816" class="fil3" points="564864.22,15867.2 565003.57,15981.66 565143,16096.09 565010.02,16096.09 565045.65,16125.3 565227,16274.31 565033.28,16274.31 565083.65,16315.66 565303.07,16495.9 564864.22,16495.9 564425.35,16495.9 564644.86,16315.66 564695.23,16274.31 564501.38,16274.31 564682.88,16125.3 564718.51,16096.09 564585.52,16096.09 564725.02,15981.66 "/>
     <polygon id="path2820" class="fil3" points="564166.72,16083.38 564271.21,16169.27 564375.77,16255.12 564276.12,16255.12 564302.7,16277.01 564438.74,16388.76 564293.47,16388.76 564331.25,16419.74 564495.78,16554.98 564166.72,16554.98 563837.62,16554.98 564002.16,16419.74 564039.94,16388.76 563894.69,16388.76 564030.73,16277.01 564057.37,16255.12 563957.63,16255.12 564062.21,16169.27 "/>
     <polygon id="path2824" class="fil3" points="569994.78,16036.71 570099.11,16122.56 570203.84,16208.4 570103.95,16208.4 570130.59,16230.29 570266.78,16342.03 570121.53,16342.03 570159.31,16373.02 570323.76,16508.26 569994.78,16508.26 569665.71,16508.26 569830.16,16373.02 569867.94,16342.03 569722.67,16342.03 569858.64,16230.29 569885.22,16208.4 569785.63,16208.4 569890.12,16122.55 "/>
     <path id="path2828" class="fil6" d="M527675.28 6813.67l92.07 92.07 299.96 28.27 -299.96 28.3 -92.07 92.07 -92.21 -92.07 -299.97 -28.3 299.97 -28.27 92.21 -92.07zm3137.15 1631.52l71.62 71.61 233.39 21.99 -233.39 22.01 -71.62 71.62 -71.71 -71.62 -233.18 -22.01 233.18 -21.99 71.71 -71.61zm12331.15 722.13l40.76 40.93 133.37 12.59 -133.37 12.55 -40.76 40.91 -41 -40.91 -133.37 -12.55 133.37 -12.59 41 -40.93zm11808.04 -2621.12l30.86 30.68 99.96 9.43 -99.96 9.43 -30.86 30.7 -30.71 -30.7 -100.04 -9.43 100.04 -9.43 30.71 -30.68zm-16514 -829.14l41 40.91 133.37 12.59 -133.37 12.55 -41 40.94 -40.76 -40.94 -133.37 -12.55 133.37 -12.59 40.76 -40.91zm5795.2 -320.97l30.71 30.7 100.12 9.43 -100.12 9.43 -30.71 30.73 -30.79 -30.73 -99.96 -9.43 99.96 -9.43 30.79 -30.7zm20391.81 1176.85l30.86 30.68 99.96 9.43 -99.96 9.45 -30.86 30.68 -30.56 -30.68 -100.05 -9.45 100.05 -9.43 30.56 -30.68zm-3050 -1872.24l51.22 51.14 166.69 15.74 -166.69 15.72 -51.22 51.13 -51.21 -51.13 -166.69 -15.72 166.69 -15.74 51.21 -51.14zm-9368.11 2754.87l41 40.9 133.37 12.59 -133.37 12.56 -41 40.93 -41 -40.93 -133.29 -12.56 133.29 -12.59 41 -40.9zm-1263.61 2059.45l133.21 133 433.25 40.86 -433.25 40.84 -133.21 133 -133.07 -133 -433.34 -40.84 433.34 -40.86 133.07 -133zm392.18 1902.32l120.39 120.23 391.73 36.93 -391.73 36.92 -120.39 120.25 -120.47 -120.25 -391.58 -36.92 391.58 -36.93 120.47 -120.23zm-18169.71 237.38l30.79 30.71 99.9 9.43 -99.9 9.43 -30.79 30.68 -30.79 -30.68 -99.96 -9.43 99.96 -9.43 30.79 -30.71zm3267.96 -2968.82l61.42 61.39 200.01 18.85 -200.01 18.87 -61.42 61.39 -61.42 -61.39 -199.92 -18.87 199.92 -18.85 61.42 -61.39zm435.56 2219.93l61.58 61.41 200.01 18.85 -200.01 18.84 -61.58 61.39 -61.26 -61.39 -200.01 -18.84 200.01 -18.85 61.26 -61.41zm8801.89 -3156.06l81.86 81.84 266.49 25.14 -266.49 25.14 -81.86 81.84 -82 -81.84 -266.65 -25.14 266.65 -25.14 82 -81.84zm15983.38 -133.73l90.37 90.28 294.2 27.73 -294.2 27.73 -90.37 90.28 -90.52 -90.28 -294.14 -27.73 294.14 -27.73 90.52 -90.28zm5628.42 240.71l61.35 61.39 200.23 18.84 -200.23 18.88 -61.35 61.39 -61.42 -61.39 -200.02 -18.88 200.02 -18.84 61.42 -61.39zm-22439.85 1069.85l51.37 51.16 166.53 15.72 -166.53 15.74 -51.37 51.11 -51.06 -51.11 -166.75 -15.74 166.75 -15.72 51.06 -51.16zm2701.59 3423.51l51.21 51.16 166.69 15.74 -166.69 15.72 -51.21 51.16 -51.12 -51.16 -166.85 -15.72 166.85 -15.74 51.12 -51.16zm-8540.16 -3958.43l92.07 92.07 299.96 28.3 -299.96 28.25 -92.07 92.1 -92.21 -92.1 -300.12 -28.25 300.12 -28.3 92.21 -92.07zm8409.4 -2300.19l41 40.93 133.29 12.59 -133.29 12.55 -41 40.91 -41 -40.91 -133.37 -12.55 133.37 -12.59 41 -40.93zm4792.94 -1230.3l41 40.91 133.37 12.56 -133.37 12.58 -41 40.94 -41 -40.94 -133.29 -12.58 133.29 -12.56 41 -40.91zm12853.92 8237.84l92.12 92.04 300.06 28.3 -300.06 28.3 -92.12 92.06 -92.06 -92.06 -300.12 -28.3 300.12 -28.3 92.06 -92.04zm-37581.15 -8247.89l87.14 86.95 283.15 26.7 -283.15 26.72 -87.14 86.95 -87.05 -86.95 -283.24 -26.72 283.24 -26.7 87.05 -86.95zm3464 588.4l61.57 61.39 199.92 18.85 -199.92 18.87 -61.57 61.36 -61.27 -61.36 -200.16 -18.87 200.16 -18.85 61.27 -61.39zm-6949.79 3035.73l46.07 46.03 149.96 14.14 -149.96 14.15 -46.07 46.04 -45.99 -46.04 -150.01 -14.15 150.01 -14.14 45.99 -46.03zm2854.06 936.1l122.84 122.75 399.93 37.73 -399.93 37.73 -122.84 122.75 -122.83 -122.75 -399.93 -37.73 399.93 -37.73 122.83 -122.75zm-544.66 1537.94l76.7 76.72 250.07 23.57 -250.07 23.56 -76.7 76.75 -76.85 -76.75 -249.91 -23.56 249.91 -23.57 76.85 -76.72zm6056.48 -1096.64l66.64 66.53 216.59 20.43 -216.59 20.44 -66.64 66.5 -66.49 -66.5 -216.59 -20.44 216.59 -20.43 66.49 -66.53zm-4444.37 2340.33l87.06 86.97 283.47 26.68 -283.47 26.74 -87.06 86.98 -87.06 -86.98 -283.23 -26.74 283.23 -26.68 87.06 -86.97zm10740.68 334.33l61.42 61.39 199.92 18.85 -199.92 18.85 -61.42 61.39 -61.42 -61.39 -200.01 -18.85 200.01 -18.85 61.42 -61.39zm19215.59 -6780.19l102.43 102.32 333.29 31.42 -333.29 31.46 -102.43 102.29 -102.35 -102.29 -333.38 -31.46 333.38 -31.42 102.35 -102.32zm5098.04 -320.95l40.85 40.94 133.29 12.56 -133.29 12.55 -40.85 40.94 -40.92 -40.94 -133.43 -12.55 133.43 -12.56 40.92 -40.94zm3333.17 441.34l46.13 46 150.11 14.14 -150.11 14.16 -46.13 46.03 -46.08 -46.03 -149.95 -14.16 149.95 -14.14 46.08 -46zm2048.04 748.88l76.7 76.72 250.07 23.56 -250.07 23.57 -76.7 76.75 -76.85 -76.75 -249.98 -23.57 249.98 -23.56 76.85 -76.72zm936.78 1230.29l81.92 81.86 266.72 25.12 -266.72 25.17 -81.92 81.84 -82 -81.84 -266.56 -25.17 266.56 -25.12 82 -81.86zm-827.83 789.03l61.42 61.39 199.92 18.83 -199.92 18.88 -61.42 61.36 -61.42 -61.36 -200.01 -18.88 200.01 -18.83 61.42 -61.39zm-43964.99 -2437.24l82 81.84 266.65 25.17 -266.65 25.14 -82 81.82 -82 -81.82 -266.65 -25.14 266.65 -25.17 82 -81.84z"/>
    </g>
   </g>
   <polygon class="fil7" points="520984.85,4001.65 571658.25,4001.65 571658.25,19554.16 520984.85,19554.16 "/>
  </g>
 </g>
</svg>
