<?xml version="1.0" encoding="UTF-8" standalone="no"?>
<!-- Created with Inkscape (http://www.inkscape.org/) -->

<svg
   version="1.1"
   id="svg2666"
   width="880"
   height="880"
   viewBox="0 0 880 880"
   sodipodi:docname="landscape-hills-clipart-publicdomainvectors.org.svg"
   inkscape:version="1.2 (dc2aedaf03, 2022-05-15)"
   xmlns:inkscape="http://www.inkscape.org/namespaces/inkscape"
   xmlns:sodipodi="http://sodipodi.sourceforge.net/DTD/sodipodi-0.dtd"
   xmlns="http://www.w3.org/2000/svg"
   xmlns:svg="http://www.w3.org/2000/svg">
  <defs
     id="defs2670">
    <clipPath
       clipPathUnits="userSpaceOnUse"
       id="clipPath2684">
      <path
         d="M 0,660 H 660 V 0 H 0 Z"
         id="path2682" />
    </clipPath>
  </defs>
  <sodipodi:namedview
     id="namedview2668"
     pagecolor="#ffffff"
     bordercolor="#000000"
     borderopacity="0.25"
     inkscape:showpageshadow="2"
     inkscape:pageopacity="0.0"
     inkscape:pagecheckerboard="0"
     inkscape:deskcolor="#d1d1d1"
     showgrid="false"
     inkscape:zoom="0.95113636"
     inkscape:cx="441.05137"
     inkscape:cy="440.52569"
     inkscape:window-width="1920"
     inkscape:window-height="1017"
     inkscape:window-x="-8"
     inkscape:window-y="-8"
     inkscape:window-maximized="1"
     inkscape:current-layer="g2674">
    <inkscape:page
       x="0"
       y="0"
       id="page2672"
       width="880"
       height="880" />
  </sodipodi:namedview>
  <g
     id="g2674"
     inkscape:groupmode="layer"
     inkscape:label="Page 1"
     transform="matrix(1.3333333,0,0,-1.3333333,0,880)">
    <path
       d="M 0,0 H 660 V 658.599 H 0 Z"
       style="fill:#99d0d4;fill-opacity:1;fill-rule:nonzero;stroke:none"
       id="path2676" />
    <g
       id="g2678">
      <g
         id="g2680"
         clip-path="url(#clipPath2684)">
        <g
           id="g2686"
           transform="translate(-0.1353,203.8301)">
          <path
             d="m 0,0 h 13.769 c 5.595,0 10.404,1.689 14.768,5.191 4.165,3.34 9.046,5.025 14.587,5.025 h 3.164 c 6.32,0 11.754,2.181 16.321,6.551 4.514,4.323 9.963,6.501 16.265,6.501 h 23.864 c 6.233,0 11.635,2.129 16.12,6.36 4.388,4.135 9.518,6.256 15.544,6.418 4.674,0.129 8.869,1.481 12.548,4.038 9.466,6.588 22.016,5.474 30.171,-2.679 0.587,-0.587 1.175,-1.175 1.762,-1.761 4.596,-4.597 10.189,-6.914 16.688,-6.914 h 3.486 c 5.324,0 9.898,-1.526 14.158,-4.718 4.025,-3.019 8.694,-4.539 13.959,-4.539 h 5.37 c 2.204,-2.203 4.41,-4.409 6.616,-6.616 h 12.55 c 6.499,0 12.093,-2.316 16.69,-6.913 0.088,-0.088 0.177,-0.176 0.266,-0.265 4.596,-4.597 10.188,-6.913 16.687,-6.913 h 17.341 c 5.532,0 10.283,1.651 14.622,5.077 4.133,3.262 8.962,4.904 14.435,4.904 h 10.762 c 6.499,0 12.093,2.318 16.689,6.913 0.931,0.933 1.866,1.866 2.797,2.799 4.596,4.597 10.19,6.913 16.689,6.913 h 22.176 c 5.54,0 10.301,1.655 14.644,5.091 4.138,3.275 8.975,4.924 14.457,4.924 h 5.482 c 4.598,0 8.769,1.169 12.414,3.46 9.758,6.136 22.243,4.437 30.007,-4.083 0.375,-0.414 0.752,-0.827 1.129,-1.24 4.635,-5.085 10.557,-7.702 17.441,-7.702 h 7.402 c 4.883,0 9.075,-1.274 13.131,-3.99 3.787,-2.538 8.114,-3.812 12.938,-3.812 H 543.4 c 4.993,0 9.281,-1.336 13.393,-4.17 3.85,-2.655 8.262,-3.989 13.195,-3.989 h 3.977 c 4.687,0 8.708,-1.171 12.663,-3.685 3.679,-2.339 7.85,-3.516 12.482,-3.516 h 4.558 c 6.064,0 11.279,2.003 15.787,6.058 4.395,3.955 9.644,5.948 15.673,5.948 h 3.754 c 1.892,3.275 3.785,6.551 5.676,9.826 h 15.747 v -230.026 l -660.305,0 z"
             style="fill:#83c0c4;fill-opacity:1;fill-rule:evenodd;stroke:none"
             id="path2688" />
        </g>
        <g
           id="g2690"
           transform="translate(660.1699,255.2393)">
          <path
             d="m 0,0 v -256.943 h -660.305 v 224.639 h 7.166 c 6.665,0 12.577,-2.832 16.569,-7.768 3.726,-4.608 8.581,-7.238 14.476,-7.846 5.57,-0.576 10.384,-3.17 14.079,-7.611 l 2.886,-3.467 c 4.219,-5.071 9.896,-7.734 16.493,-7.734 h 11.845 c 5.646,0 10.502,1.913 14.631,5.762 3.945,3.677 8.879,5.594 14.475,5.594 h 8.815 c 6.014,0 11.19,2.185 15.382,6.497 4.066,4.181 9.288,6.368 15.264,6.368 h 22.029 c 5.878,0 10.94,2.084 15.111,6.226 4.025,3.994 9.145,6.078 14.983,6.078 h 13.803 c 6.937,0 12.905,2.965 17.095,8.49 l 8.447,11.137 c 4.19,5.527 10.156,8.49 17.093,8.49 h 0.507 c 6.065,0 11.282,-2.224 15.481,-6.601 4.029,-4.199 9.322,-6.434 15.342,-6.434 h 12.996 c 6.597,0 12.275,-2.66 16.494,-7.734 l 0.271,-0.325 c 4.22,-5.072 9.895,-7.732 16.494,-7.732 h 34.018 c 6.594,0 12.273,-2.662 16.493,-7.734 l 8.943,-10.75 c 4.218,-5.071 9.897,-7.731 16.493,-7.731 h 19.651 c 6.596,0 12.274,-2.664 16.493,-7.734 l 0.227,-0.272 c 4.218,-5.071 9.897,-7.733 16.493,-7.733 h 27.662 c 6.596,0 12.273,2.66 16.493,7.733 l 5.62,6.754 c 4.217,5.07 9.896,7.733 16.491,7.733 h 9.891 c 5.407,0 10.057,1.748 14.127,5.305 3.824,3.348 8.531,5.099 13.833,5.125 6.372,0.033 11.843,2.531 16.039,7.325 4.175,4.772 9.706,7.273 16.099,7.273 h 9.201 c 6.596,0 12.274,2.662 16.494,7.733 l 8.446,10.154 C -18.651,-2.664 -12.977,0 -6.381,0 Z"
             style="fill:#65a6ab;fill-opacity:1;fill-rule:evenodd;stroke:none"
             id="path2692" />
        </g>
        <g
           id="g2694"
           transform="translate(-0.1353,126.6797)">
          <path
             d="m 0,0 h 46.349 c 6.013,0 11.162,1.232 16.521,3.955 5.115,2.6 10.321,3.812 16.258,3.812 h 23.706 c 5.989,0 11.122,1.222 16.466,3.927 4.969,2.516 10.022,3.717 15.793,3.782 l 37.005,0.419 c 3.589,0.041 6.674,-0.737 9.815,-2.472 2.974,-1.64 6.004,-2.405 9.481,-2.405 h 8.132 c 5.073,0 9.414,-0.873 14.092,-2.834 4.326,-1.814 8.789,-2.671 13.764,-2.677 3.152,-10e-4 5.851,-0.626 8.685,-2.01 2.688,-1.311 5.435,-1.925 8.55,-1.925 h 16.87 l 85.156,-0.097 c 5.943,-0.008 11.035,1.191 16.35,3.849 5.036,2.517 10.182,3.696 16.031,3.696 h 22.243 c 5.275,0 9.791,0.943 14.625,3.058 4.502,1.974 9.136,2.901 14.328,2.901 h 15.709 l 7.469,4.917 h 5.581 c 7.014,0 13.031,-1.694 19.017,-5.351 5.858,-3.579 11.897,-5.258 18.871,-5.258 h 9.026 c 3.87,0 7.185,-0.737 10.689,-2.38 2.636,-1.233 5.324,-1.943 8.245,-2.176 h 114.824 c 0.389,0.209 0.772,0.433 1.145,0.671 3.326,2.11 6.703,3.092 10.638,3.092 h 8.871 V -128.384 H 0 Z"
             style="fill:#2e6469;fill-opacity:1;fill-rule:evenodd;stroke:none"
             id="path2696" />
        </g>
        <g
           id="g2698"
           transform="translate(-0.1353,98.2139)">
          <path
             d="m 0,0 v -99.918 h 660.305 v 87.355 h -7.164 c -6.67,0 -12.577,-1.1 -16.571,-3.02 -3.729,-1.79 -8.583,-2.815 -14.476,-3.052 -5.505,-0.219 -10.271,-1.21 -13.949,-2.898 h -60.461 -8.815 c -6.014,0 -11.19,0.849 -15.382,2.525 -4.066,1.628 -9.288,2.478 -15.265,2.478 h -22.028 c -5.878,0 -10.938,0.81 -15.111,2.422 -4.026,1.551 -9.143,2.362 -14.981,2.362 h -13.805 c -6.937,0 -12.904,1.153 -17.095,3.302 l -8.445,4.33 c -4.192,2.148 -10.159,3.301 -17.093,3.301 h -0.507 c -6.065,0 -11.283,-0.865 -15.481,-2.566 -4.031,-1.633 -9.324,-2.501 -15.343,-2.501 h -12.996 c -6.598,0 -12.274,-1.037 -16.493,-3.008 l -0.273,-0.128 c -4.218,-1.97 -9.895,-3.006 -16.492,-3.006 H 288.06 c -6.596,0 -12.274,-1.036 -16.494,-3.008 l -8.941,-4.179 -0.192,-0.087 H 110.379 c -2.668,0.338 -5.121,0.891 -7.397,1.662 -3.824,1.303 -8.531,1.985 -13.833,1.994 -6.372,0.013 -11.842,0.985 -16.039,2.849 -4.175,1.856 -9.706,2.828 -16.1,2.828 h -9.198 c -6.597,0 -12.274,1.034 -16.494,3.007 l -8.445,3.948 C 18.653,-1.035 12.974,0 6.379,0 Z"
             style="fill:#1c4347;fill-opacity:1;fill-rule:evenodd;stroke:none"
             id="path2700" />
        </g>
        <g
           id="g2702"
           transform="translate(68.5112,168.0186)">
          <path
             d="m 0,0 6.839,-18.302 6.835,-18.303 H 7.157 l 1.744,-4.667 8.9,-23.824 H 8.298 l 2.469,-6.608 10.766,-28.819 H 0 -21.533 l 10.767,28.819 2.47,6.608 h -9.503 l 8.899,23.824 1.743,4.667 h -6.517 l 6.837,18.303 z"
             style="fill:#1c4347;fill-opacity:1;fill-rule:evenodd;stroke:none"
             id="path2704" />
        </g>
        <g
           id="g2706"
           transform="translate(93.4824,149.8574)">
          <path
             d="m 0,0 6.837,-18.303 6.839,-18.302 H 7.159 L 8.9,-41.271 17.799,-65.095 H 8.296 l 2.471,-6.607 10.766,-28.819 H 0 -21.531 l 10.766,28.819 2.469,6.607 h -9.503 l 8.9,23.824 1.742,4.666 h -6.517 l 6.837,18.302 z"
             style="fill:#1c4347;fill-opacity:1;fill-rule:evenodd;stroke:none"
             id="path2708" />
        </g>
        <g
           id="g2710"
           transform="translate(157.189,145.0352)">
          <path
             d="m 0,0 5.892,-15.771 5.891,-15.771 H 6.167 l 1.5,-4.021 7.67,-20.529 H 7.149 l 2.127,-5.695 9.277,-24.832 H 0 -18.555 l 9.278,24.832 2.126,5.695 h -8.189 l 7.67,20.529 1.501,4.021 h -5.617 l 5.893,15.771 z"
             style="fill:#1c4347;fill-opacity:1;fill-rule:evenodd;stroke:none"
             id="path2712" />
        </g>
        <g
           id="g2714"
           transform="translate(194.8164,157.9814)">
          <path
             d="m 0,0 5.893,-15.768 5.892,-15.774 H 6.167 l 1.503,-4.019 7.669,-20.529 h -8.19 l 2.128,-5.695 9.278,-24.832 H 0 -18.555 l 9.278,24.832 2.128,5.695 h -8.188 l 7.668,20.529 1.503,4.019 h -5.617 l 5.892,15.774 z"
             style="fill:#1c4347;fill-opacity:1;fill-rule:evenodd;stroke:none"
             id="path2716" />
        </g>
        <g
           id="g2718"
           transform="translate(252.5303,148.4404)">
          <path
             d="m 0,0 5.892,-15.771 5.893,-15.771 H 6.167 l 1.501,-4.021 7.671,-20.529 h -8.19 l 2.128,-5.694 9.276,-24.834 H 0 -18.553 l 9.276,24.834 2.126,5.694 h -8.188 l 7.671,20.529 1.5,4.021 h -5.616 l 5.893,15.771 z"
             style="fill:#1c4347;fill-opacity:1;fill-rule:evenodd;stroke:none"
             id="path2720" />
        </g>
        <g
           id="g2722"
           transform="translate(378.832,138.9414)">
          <path
             d="M 0,0 3.881,-10.391 7.763,-20.779 H 4.062 l 0.991,-2.65 5.05,-13.523 H 4.711 l 1.4,-3.752 6.113,-16.359 H 0 -12.225 l 6.114,16.359 1.402,3.752 h -5.395 l 5.051,13.523 0.991,2.65 h -3.701 l 3.881,10.388 z"
             style="fill:#1c4347;fill-opacity:1;fill-rule:evenodd;stroke:none"
             id="path2724" />
        </g>
        <g
           id="g2726"
           transform="translate(434.0352,153.834)">
          <path
             d="M 0,0 4.792,-12.826 9.584,-25.652 H 5.016 l 1.22,-3.27 6.239,-16.696 h -6.66 l 1.73,-4.632 7.544,-20.195 H 0 -15.09 l 7.545,20.195 1.731,4.632 h -6.66 l 6.237,16.696 1.221,3.27 h -4.566 l 4.79,12.826 z"
             style="fill:#1c4347;fill-opacity:1;fill-rule:evenodd;stroke:none"
             id="path2728" />
        </g>
        <g
           id="g2730"
           transform="translate(455.7051,135.1709)">
          <path
             d="M 0,0 3.881,-10.392 7.763,-20.781 H 4.062 l 0.991,-2.648 5.052,-13.524 H 4.711 l 1.399,-3.751 6.112,-16.36 H 0 -12.223 l 6.112,16.36 1.402,3.751 h -5.396 l 5.052,13.524 0.991,2.648 h -3.701 l 3.881,10.389 z"
             style="fill:#1c4347;fill-opacity:1;fill-rule:evenodd;stroke:none"
             id="path2732" />
        </g>
        <g
           id="g2734"
           transform="translate(402.3545,167.167)">
          <path
             d="m 0,0 5.892,-15.77 5.892,-15.772 H 6.166 l 1.502,-4.02 7.671,-20.528 h -8.19 l 2.128,-5.695 9.278,-24.833 H 0 -18.555 l 9.278,24.833 2.128,5.695 h -8.19 l 7.668,20.528 1.504,4.02 h -5.615 l 5.89,15.772 z"
             style="fill:#1c4347;fill-opacity:1;fill-rule:evenodd;stroke:none"
             id="path2736" />
        </g>
        <g
           id="g2738"
           transform="translate(616.3066,149.5762)">
          <path
             d="m 0,0 5.893,-15.773 5.892,-15.771 H 6.168 l 1.502,-4.019 7.67,-20.531 H 7.151 l 2.126,-5.693 9.277,-24.832 H 0 -18.554 l 9.278,24.832 2.127,5.693 h -8.188 l 7.668,20.531 1.502,4.019 h -5.616 l 5.891,15.771 z"
             style="fill:#1c4347;fill-opacity:1;fill-rule:evenodd;stroke:none"
             id="path2740" />
        </g>
        <g
           id="g2742"
           transform="translate(591.9561,123.3916)">
          <path
             d="M 0,0 3.882,-10.39 7.761,-20.779 H 4.062 l 0.989,-2.65 5.053,-13.522 H 4.709 l 1.402,-3.752 6.112,-16.358 H 0 -12.224 l 6.111,16.358 1.402,3.752 h -5.394 l 5.052,13.522 0.989,2.65 h -3.699 l 3.882,10.389 z"
             style="fill:#1c4347;fill-opacity:1;fill-rule:evenodd;stroke:none"
             id="path2744" />
        </g>
        <g
           id="g2746"
           transform="translate(17.8433,154.8262)">
          <path
             d="m 0,0 2.11,-5.646 2.108,-5.645 H 2.207 l 0.54,-1.438 2.745,-7.348 H 2.559 l 0.763,-2.039 3.32,-8.89 H 0 -6.641 l 3.321,8.89 0.761,2.039 H -5.49 l 2.747,7.348 0.535,1.438 h -2.009 l 2.109,5.645 z"
             style="fill:#2e6469;fill-opacity:1;fill-rule:evenodd;stroke:none"
             id="path2748" />
        </g>
        <g
           id="g2750"
           transform="translate(31.2388,152.0664)">
          <path
             d="m 0,0 2.11,-5.646 2.109,-5.645 H 2.208 l 0.537,-1.441 2.745,-7.347 H 2.561 l 0.761,-2.039 3.321,-8.89 H 0 -6.643 l 3.321,8.89 0.761,2.039 H -5.49 l 2.745,7.347 0.537,1.441 h -2.011 l 2.109,5.645 z"
             style="fill:#2e6469;fill-opacity:1;fill-rule:evenodd;stroke:none"
             id="path2752" />
        </g>
        <g
           id="g2754"
           transform="translate(38.8887,154.6191)">
          <path
             d="m 0,0 2.11,-5.645 2.108,-5.646 h -2.01 l 0.537,-1.438 2.747,-7.35 H 2.559 l 0.763,-2.039 3.32,-8.888 H 0 -6.641 l 3.321,8.888 0.761,2.039 H -5.49 l 2.745,7.35 0.537,1.438 h -2.009 l 2.109,5.646 z"
             style="fill:#2e6469;fill-opacity:1;fill-rule:evenodd;stroke:none"
             id="path2756" />
        </g>
        <g
           id="g2758"
           transform="translate(121.8379,160.291)">
          <path
             d="M 0,0 1.814,-4.858 3.628,-9.717 H 1.899 l 0.462,-1.238 2.365,-6.323 H 2.202 l 0.654,-1.753 2.86,-7.651 H 0 -5.716 l 2.858,7.651 0.656,1.753 h -2.524 l 2.363,6.323 0.464,1.238 H -3.63 l 1.816,4.859 z"
             style="fill:#2e6469;fill-opacity:1;fill-rule:evenodd;stroke:none"
             id="path2760" />
        </g>
        <g
           id="g2762"
           transform="translate(132.6025,166.7861)">
          <path
             d="M 0,0 1.816,-4.858 3.63,-9.717 H 1.901 l 0.462,-1.238 2.361,-6.323 H 2.202 l 0.656,-1.753 2.858,-7.651 H 0 -5.714 l 2.856,7.651 0.656,1.753 h -2.522 l 2.361,6.323 0.464,1.238 H -3.63 l 1.816,4.859 z"
             style="fill:#2e6469;fill-opacity:1;fill-rule:evenodd;stroke:none"
             id="path2764" />
        </g>
        <g
           id="g2766"
           transform="translate(172.9712,165.2607)">
          <path
             d="M 0,0 1.816,-4.857 3.63,-9.716 H 1.901 l 0.462,-1.237 2.361,-6.324 H 2.202 l 0.656,-1.755 2.856,-7.648 H 0 -5.714 l 2.856,7.648 0.656,1.755 h -2.522 l 2.361,6.324 0.464,1.237 H -3.63 l 1.814,4.859 z"
             style="fill:#2e6469;fill-opacity:1;fill-rule:evenodd;stroke:none"
             id="path2768" />
        </g>
        <g
           id="g2770"
           transform="translate(525.2422,283.3027)">
          <path
             d="m 0,0 c 49.388,0 89.668,40.279 89.668,89.667 0,49.387 -40.28,89.666 -89.668,89.666 -49.388,0 -89.666,-40.28 -89.666,-89.666 C -89.666,40.279 -49.388,0 0,0"
             style="fill:#bbe3e6;fill-opacity:1;fill-rule:evenodd;stroke:none"
             id="path2772" />
        </g>
        <g
           id="g2774"
           transform="translate(297.8262,151.0723)">
          <path
             d="M 0,0 1.814,-4.858 3.628,-9.715 H 1.899 l 0.462,-1.24 2.363,-6.321 H 2.202 l 0.654,-1.755 2.858,-7.649 H 0 -5.716 l 2.856,7.649 0.656,1.755 h -2.522 l 2.361,6.321 0.464,1.24 h -1.731 l 1.816,4.857 z"
             style="fill:#2e6469;fill-opacity:1;fill-rule:evenodd;stroke:none"
             id="path2776" />
        </g>
        <g
           id="g2778"
           transform="translate(224.7549,156.1064)">
          <path
             d="M 0,0 1.814,-4.858 3.628,-9.715 H 1.899 l 0.462,-1.24 2.363,-6.323 H 2.202 l 0.654,-1.755 2.858,-7.649 H 0 -5.716 l 2.858,7.649 0.656,1.755 h -2.524 l 2.363,6.323 0.464,1.24 H -3.63 l 1.816,4.857 z"
             style="fill:#2e6469;fill-opacity:1;fill-rule:evenodd;stroke:none"
             id="path2780" />
        </g>
        <g
           id="g2782"
           transform="translate(214.9678,153.6289)">
          <path
             d="M 0,0 1.816,-4.858 3.63,-9.717 H 1.899 l 0.464,-1.237 2.363,-6.324 H 2.202 l 0.656,-1.755 2.858,-7.649 H 0 -5.716 l 2.86,7.649 0.654,1.755 h -2.524 l 2.365,6.324 0.462,1.237 h -1.729 l 1.814,4.859 z"
             style="fill:#2e6469;fill-opacity:1;fill-rule:evenodd;stroke:none"
             id="path2784" />
        </g>
        <g
           id="g2786"
           transform="translate(290.1743,143.4131)">
          <path
             d="M 0,0 1.36,-3.643 2.723,-7.287 H 1.424 l 0.348,-0.93 1.772,-4.742 H 1.651 l 0.492,-1.315 2.143,-5.737 H 0 -4.286 l 2.143,5.737 0.492,1.315 h -1.892 l 1.77,4.742 0.347,0.93 h -1.297 l 1.36,3.644 z"
             style="fill:#2e6469;fill-opacity:1;fill-rule:evenodd;stroke:none"
             id="path2788" />
        </g>
        <g
           id="g2790"
           transform="translate(345.0674,147.0049)">
          <path
             d="M 0,0 1.361,-3.644 2.723,-7.286 H 1.426 l 0.346,-0.932 1.771,-4.74 H 1.651 l 0.492,-1.316 2.143,-5.737 H 0 -4.286 l 2.142,5.737 0.493,1.316 h -1.892 l 1.772,4.74 0.346,0.932 h -1.299 l 1.363,3.642 z"
             style="fill:#2e6469;fill-opacity:1;fill-rule:evenodd;stroke:none"
             id="path2792" />
        </g>
        <g
           id="g2794"
           transform="translate(229.8965,149.7422)">
          <path
             d="m 0,0 1.361,-3.643 1.36,-3.644 H 1.424 l 0.347,-0.93 1.772,-4.742 H 1.651 l 0.492,-1.315 2.145,-5.739 H 0 -4.288 l 2.145,5.739 0.489,1.315 h -1.89 l 1.772,4.742 0.348,0.93 h -1.297 l 1.359,3.644 z"
             style="fill:#2e6469;fill-opacity:1;fill-rule:evenodd;stroke:none"
             id="path2796" />
        </g>
        <g
           id="g2798"
           transform="translate(361.2432,152.9844)">
          <path
             d="m 0,0 1.813,-4.857 1.815,-4.858 h -1.73 l 0.462,-1.238 2.364,-6.325 H 2.202 l 0.653,-1.753 2.859,-7.651 H 0 -5.716 l 2.856,7.651 0.658,1.753 h -2.524 l 2.363,6.325 0.464,1.238 h -1.733 l 1.816,4.858 z"
             style="fill:#2e6469;fill-opacity:1;fill-rule:evenodd;stroke:none"
             id="path2800" />
        </g>
        <g
           id="g2802"
           transform="translate(454.2324,166.7422)">
          <path
             d="M 0,0 1.816,-4.857 3.63,-9.716 H 1.901 l 0.461,-1.237 2.364,-6.323 H 2.204 l 0.653,-1.755 2.859,-7.649 H 0 -5.714 l 2.858,7.649 0.654,1.755 h -2.522 l 2.363,6.323 0.462,1.237 h -1.729 l 1.814,4.859 z"
             style="fill:#2e6469;fill-opacity:1;fill-rule:evenodd;stroke:none"
             id="path2804" />
        </g>
        <g
           id="g2806"
           transform="translate(519.8682,156.4629)">
          <path
             d="M 0,0 1.813,-4.857 3.63,-9.713 H 1.898 l 0.464,-1.24 2.362,-6.323 H 2.202 l 0.655,-1.755 2.857,-7.649 H 0 -5.716 l 2.858,7.649 0.656,1.755 h -2.524 l 2.363,6.323 0.464,1.24 h -1.732 l 1.815,4.856 z"
             style="fill:#2e6469;fill-opacity:1;fill-rule:evenodd;stroke:none"
             id="path2808" />
        </g>
        <g
           id="g2810"
           transform="translate(545.6846,148.1387)">
          <path
             d="M 0,0 1.36,-3.643 2.722,-7.286 H 1.425 l 0.347,-0.929 1.772,-4.742 H 1.651 l 0.492,-1.316 2.143,-5.738 H 0 -4.287 l 2.142,5.738 0.492,1.316 h -1.89 l 1.772,4.742 0.345,0.929 h -1.297 l 1.362,3.643 z"
             style="fill:#2e6469;fill-opacity:1;fill-rule:evenodd;stroke:none"
             id="path2812" />
        </g>
        <g
           id="g2814"
           transform="translate(571.5107,156.4629)">
          <path
             d="M 0,0 1.815,-4.857 3.631,-9.713 H 1.899 l 0.464,-1.24 2.362,-6.323 H 2.202 l 0.656,-1.755 2.858,-7.649 H 0 -5.716 l 2.859,7.649 0.656,1.755 h -2.525 l 2.364,6.323 0.464,1.24 H -3.63 l 1.817,4.856 z"
             style="fill:#2e6469;fill-opacity:1;fill-rule:evenodd;stroke:none"
             id="path2816" />
        </g>
        <g
           id="g2818"
           transform="translate(562.4258,147.2891)">
          <path
             d="M 0,0 1.361,-3.645 2.723,-7.288 H 1.425 l 0.346,-0.929 1.772,-4.742 H 1.651 l 0.492,-1.315 2.143,-5.739 H 0 -4.286 l 2.143,5.739 0.492,1.315 h -1.892 l 1.772,4.742 0.347,0.929 h -1.299 l 1.362,3.643 z"
             style="fill:#2e6469;fill-opacity:1;fill-rule:evenodd;stroke:none"
             id="path2820" />
        </g>
        <g
           id="g2822"
           transform="translate(638.334,149.2695)">
          <path
             d="M 0,0 1.359,-3.643 2.723,-7.286 H 1.422 l 0.347,-0.929 1.774,-4.742 H 1.651 l 0.492,-1.315 2.142,-5.739 H 0 -4.286 l 2.142,5.739 0.492,1.315 h -1.892 l 1.771,4.742 0.346,0.929 h -1.297 l 1.361,3.643 z"
             style="fill:#2e6469;fill-opacity:1;fill-rule:evenodd;stroke:none"
             id="path2824" />
        </g>
        <g
           id="g2826"
           transform="translate(87.1401,540.667)">
          <path
             d="M 0,0 1.199,-3.907 5.106,-5.107 1.199,-6.308 0,-10.215 l -1.201,3.907 -3.907,1.201 3.907,1.2 z m 40.86,-69.237 0.933,-3.039 3.04,-0.933 -3.04,-0.934 -0.933,-3.039 -0.934,3.039 -3.037,0.934 3.037,0.933 z m 160.608,-30.645 0.531,-1.737 1.737,-0.534 -1.737,-0.533 -0.531,-1.736 -0.534,1.736 -1.737,0.533 1.737,0.534 z m 153.795,111.232 0.402,-1.302 1.302,-0.4 -1.302,-0.4 -0.402,-1.303 -0.4,1.303 -1.303,0.4 1.303,0.4 z m -215.088,35.186 0.534,-1.736 1.737,-0.534 -1.737,-0.533 -0.534,-1.737 -0.531,1.737 -1.737,0.533 1.737,0.534 z m 75.48,13.621 0.4,-1.303 1.304,-0.4 -1.304,-0.4 -0.4,-1.304 -0.401,1.304 -1.302,0.4 1.302,0.4 z m 265.595,-49.942 0.402,-1.302 1.302,-0.4 -1.302,-0.401 -0.402,-1.302 -0.398,1.302 -1.303,0.401 1.303,0.4 z m -39.725,79.452 0.667,-2.17 2.171,-0.668 -2.171,-0.667 -0.667,-2.17 -0.667,2.17 -2.171,0.667 2.171,0.668 z m -122.016,-116.908 0.534,-1.736 1.737,-0.534 -1.737,-0.533 -0.534,-1.737 -0.534,1.737 -1.736,0.533 1.736,0.534 z m -16.458,-87.397 1.735,-5.644 5.643,-1.734 -5.643,-1.733 -1.735,-5.644 -1.733,5.644 -5.644,1.733 5.644,1.734 z m 5.108,-80.728 1.568,-5.102 5.102,-1.567 -5.102,-1.567 -1.568,-5.103 -1.569,5.103 -5.1,1.567 5.1,1.567 z m -236.653,-10.074 0.401,-1.303 1.301,-0.4 -1.301,-0.4 -0.401,-1.302 -0.401,1.302 -1.302,0.4 1.302,0.4 z m 42.564,125.988 0.8,-2.605 2.605,-0.8 -2.605,-0.801 -0.8,-2.605 -0.8,2.605 -2.604,0.801 2.604,0.8 z m 5.673,-94.207 0.802,-2.606 2.605,-0.8 -2.605,-0.8 -0.802,-2.605 -0.798,2.605 -2.605,0.8 2.605,0.8 z m 114.641,133.933 1.066,-3.473 3.471,-1.067 -3.471,-1.067 -1.066,-3.473 -1.068,3.473 -3.473,1.067 3.473,1.067 z m 208.177,5.675 1.177,-3.831 3.832,-1.177 -3.832,-1.177 -1.177,-3.831 -1.179,3.831 -3.831,1.177 3.831,1.177 z m 73.308,-10.215 0.799,-2.605 2.608,-0.8 -2.608,-0.801 -0.799,-2.605 -0.8,2.605 -2.605,0.801 2.605,0.8 z m -292.27,-45.401 0.669,-2.171 2.169,-0.667 -2.169,-0.668 -0.669,-2.169 -0.665,2.169 -2.172,0.668 2.172,0.667 z m 35.187,-145.283 0.667,-2.171 2.171,-0.668 -2.171,-0.667 -0.667,-2.171 -0.666,2.171 -2.173,0.667 2.173,0.668 z m -111.232,167.983 1.199,-3.907 3.907,-1.201 -3.907,-1.199 -1.199,-3.908 -1.201,3.908 -3.909,1.199 3.909,1.201 z m 109.529,97.613 0.534,-1.737 1.736,-0.534 -1.736,-0.533 -0.534,-1.736 -0.534,1.736 -1.737,0.533 1.737,0.534 z m 62.426,52.21 0.534,-1.736 1.737,-0.533 -1.737,-0.534 -0.534,-1.737 -0.534,1.737 -1.736,0.534 1.736,0.533 z m 167.417,-349.588 1.2,-3.906 3.908,-1.201 -3.908,-1.201 -1.2,-3.907 -1.199,3.907 -3.909,1.201 3.909,1.201 z M -2.553,83.283 l 1.135,-3.69 3.688,-1.133 -3.688,-1.134 -1.135,-3.69 -1.134,3.69 -3.689,1.134 3.689,1.133 z m 45.117,-24.97 0.802,-2.605 2.604,-0.8 -2.604,-0.801 -0.802,-2.604 -0.798,2.604 -2.607,0.801 2.607,0.8 z m -90.518,-128.827 0.6,-1.953 1.953,-0.6 -1.953,-0.6 -0.6,-1.954 -0.599,1.954 -1.954,0.6 1.954,0.6 z m 37.173,-39.725 1.6,-5.209 5.209,-1.601 -5.209,-1.601 -1.6,-5.209 -1.6,5.209 -5.209,1.601 5.209,1.601 z m -7.094,-65.265 0.999,-3.256 3.257,-1 -3.257,-1 -0.999,-3.257 -1.001,3.257 -3.255,1 3.255,1 z m 78.883,46.538 0.868,-2.823 2.821,-0.867 -2.821,-0.867 -0.868,-2.822 -0.866,2.822 -2.821,0.867 2.821,0.867 z m -57.886,-99.316 1.134,-3.691 3.692,-1.132 -3.692,-1.135 -1.134,-3.691 -1.134,3.691 -3.689,1.135 3.689,1.132 z m 139.893,-14.188 0.8,-2.605 2.604,-0.8 -2.604,-0.8 -0.8,-2.605 -0.8,2.605 -2.605,0.8 2.605,0.8 z m 250.275,287.73 1.334,-4.342 4.341,-1.333 -4.341,-1.335 -1.334,-4.341 -1.333,4.341 -4.342,1.335 4.342,1.333 z m 66.4,13.62 0.532,-1.737 1.736,-0.533 -1.736,-0.533 -0.532,-1.737 -0.533,1.737 -1.738,0.533 1.738,0.533 z m 43.413,-18.729 0.601,-1.952 1.955,-0.6 -1.955,-0.601 -0.601,-1.953 -0.6,1.953 -1.953,0.601 1.953,0.6 z m 26.675,-31.78 0.999,-3.256 3.257,-1 -3.257,-1 -0.999,-3.257 -1.001,3.257 -3.256,1 3.256,1 z m 12.201,-52.21 1.067,-3.474 3.474,-1.066 -3.474,-1.068 -1.067,-3.473 -1.068,3.473 -3.472,1.068 3.472,1.066 z m -10.782,-33.484 0.8,-2.605 2.604,-0.799 -2.604,-0.801 -0.8,-2.604 -0.8,2.604 -2.605,0.801 2.605,0.799 z m -572.626,103.429 1.068,-3.473 3.473,-1.068 -3.473,-1.067 -1.068,-3.472 -1.068,3.472 -3.473,1.067 3.473,1.068 z"
             style="fill:#d9f0f2;fill-opacity:1;fill-rule:evenodd;stroke:none"
             id="path2828" />
        </g>
      </g>
    </g>
  </g>
</svg>
