<?xml version="1.0" standalone="no"?>
<!DOCTYPE svg PUBLIC "-//W3C//DTD SVG 20010904//EN"
 "http://www.w3.org/TR/2001/REC-SVG-20010904/DTD/svg10.dtd">
<svg version="1.0" xmlns="http://www.w3.org/2000/svg"
 width="64.000000pt" height="64.000000pt" viewBox="0 0 64.000000 64.000000"
 preserveAspectRatio="xMidYMid meet">

<g transform="translate(0.000000,64.000000) scale(0.100000,-0.100000)"
fill="#000000" stroke="none">
<path d="M268 561 c-133 -43 -192 -185 -126 -304 l27 -48 -20 -32 c-11 -18
-25 -44 -31 -59 -7 -16 -20 -28 -30 -28 -10 0 -18 -4 -18 -10 0 -6 90 -10 250
-10 160 0 250 4 250 10 0 6 -8 10 -18 10 -10 0 -23 12 -30 28 -6 15 -20 41
-31 59 l-20 32 27 48 c55 99 23 222 -72 278 -47 28 -116 39 -158 26z m154 -40
c90 -57 115 -179 55 -270 l-27 -41 -125 0 c-139 0 -151 5 -181 76 -52 125 40
264 176 264 45 0 65 -6 102 -29z m48 -341 c0 -6 -57 -10 -150 -10 -93 0 -150
4 -150 10 0 6 57 10 150 10 93 0 150 -4 150 -10z m25 -40 c3 -6 -1 -10 -9 -10
-9 0 -16 -4 -16 -10 0 -5 9 -10 20 -10 11 0 20 -4 20 -10 0 -5 -24 -10 -54
-10 -30 0 -58 5 -61 10 -8 13 -142 13 -150 0 -3 -5 -31 -10 -61 -10 -30 0 -54
5 -54 10 0 6 9 10 20 10 11 0 20 5 20 10 0 6 -7 10 -16 10 -8 0 -12 5 -9 10 8
13 342 13 350 0z"/>
<path d="M267 516 c-44 -16 -74 -41 -92 -76 -19 -38 -27 -80 -15 -80 5 0 10
10 10 23 0 12 9 37 20 55 23 37 75 72 108 72 12 0 22 5 22 10 0 13 -6 12 -53
-4z"/>
</g>
</svg>
